 <svg version="1.0" xmlns="http://www.w3.org/2000/svg" width="700.000000pt" height="700.000000pt" viewBox="0 0 700.000000 700.000000" preserveAspectRatio="xMidYMid meet">
<metadata>
Created by potrace 1.12, written by Peter Selinger 2001-2015
</metadata>
<g transform="translate(0.000000,700.000000) scale(0.100000,-0.100000)" fill="#000000" stroke="none">
<path d="M3299 6990 c-9 -5 -64 -14 -122 -19 -57 -5 -114 -14 -125 -20 -11 -6
-35 -11 -52 -11 -17 0 -40 -5 -51 -10 -10 -6 -38 -15 -61 -19 -40 -8 -186 -58
-233 -80 -64 -29 -255 -125 -280 -142 -16 -10 -37 -22 -45 -26 -18 -8 -136
-91 -210 -148 -80 -62 -284 -268 -350 -355 -66 -87 -150 -209 -150 -217 0 -4
-6 -14 -14 -22 -20 -23 -116 -209 -116 -225 0 -7 -6 -19 -14 -25 -8 -6 -16
-24 -19 -39 -3 -15 -15 -52 -27 -82 -36 -92 -76 -241 -105 -395 -22 -113 -31
-421 -16 -525 14 -97 36 -209 55 -285 31 -124 39 -151 52 -183 8 -18 14 -43
14 -55 1 -12 7 -33 15 -47 8 -14 14 -36 15 -50 0 -15 5 -31 11 -37 6 -6 14
-26 19 -44 9 -36 91 -253 115 -306 8 -17 15 -36 15 -41 0 -6 6 -23 14 -39 8
-15 21 -45 30 -65 9 -21 23 -55 32 -75 9 -21 22 -51 30 -66 8 -16 14 -37 14
-47 0 -9 7 -23 15 -30 8 -7 15 -19 15 -27 0 -8 7 -27 15 -41 8 -15 24 -49 35
-77 75 -174 383 -803 560 -1140 54 -104 111 -212 125 -240 14 -27 34 -63 44
-80 10 -16 36 -64 58 -105 49 -91 98 -181 129 -235 13 -22 35 -62 49 -90 42
-79 52 -96 64 -108 6 -6 11 -17 11 -23 0 -7 13 -33 30 -57 16 -25 30 -47 30
-50 0 -6 149 -266 170 -297 6 -8 13 -22 17 -30 3 -8 48 -86 100 -172 51 -86
93 -159 93 -162 0 -3 13 -24 29 -48 16 -24 39 -61 51 -83 12 -22 39 -67 61
-100 22 -33 42 -68 45 -77 10 -27 17 -21 43 34 13 28 44 80 68 115 23 35 43
66 43 69 0 3 49 88 108 187 60 100 112 189 116 197 3 8 15 29 26 45 11 17 23
37 27 45 3 8 42 74 85 147 43 72 78 134 78 137 0 4 80 146 100 176 6 8 13 22
17 30 3 8 29 56 56 105 28 50 64 115 80 145 16 30 36 62 43 71 8 8 14 22 14
30 0 8 4 19 9 24 6 6 25 39 44 75 19 36 50 95 71 132 60 110 113 210 136 258
12 25 25 52 30 60 5 8 89 175 186 370 97 195 180 362 185 370 5 8 12 22 15 30
3 8 18 42 34 75 16 33 38 83 50 110 23 53 74 162 96 207 8 14 14 31 14 37 0 6
13 39 29 73 15 35 38 88 50 118 12 30 26 64 30 75 5 11 17 40 27 65 9 25 26
64 36 87 10 23 18 47 18 53 0 5 4 18 10 28 12 21 40 98 47 132 3 14 10 31 16
38 5 7 13 29 17 50 5 20 14 53 20 72 40 113 39 108 76 255 8 33 19 87 24 120
6 33 15 74 21 90 16 45 23 326 10 440 -25 227 -84 479 -137 588 -8 16 -14 35
-14 42 0 14 -5 24 -92 195 -46 89 -130 222 -213 332 -61 81 -319 337 -401 396
-32 24 -80 59 -106 78 -26 19 -49 34 -53 34 -3 0 -24 12 -48 27 -71 46 -314
163 -337 163 -5 0 -18 4 -28 10 -26 15 -102 41 -147 50 -22 4 -53 12 -70 18
-51 18 -177 41 -247 46 -38 3 -77 10 -87 16 -25 13 -390 13 -412 0z m456 -505
c33 -8 76 -14 96 -15 20 0 53 -7 72 -15 20 -8 46 -15 58 -15 11 0 35 -6 52
-13 39 -17 91 -35 133 -48 42 -12 203 -91 256 -126 24 -15 51 -32 60 -38 112
-68 308 -231 373 -311 22 -27 48 -58 58 -69 41 -45 122 -155 147 -201 12 -22
31 -57 44 -79 61 -111 126 -254 126 -279 0 -8 5 -18 10 -21 6 -3 10 -14 10
-23 0 -9 9 -46 19 -82 45 -149 66 -311 66 -505 -1 -126 -18 -307 -34 -348 -6
-16 -11 -40 -11 -55 0 -15 -7 -40 -15 -56 -8 -15 -15 -38 -15 -50 0 -11 -7
-34 -15 -50 -8 -15 -15 -33 -15 -38 0 -6 -6 -24 -14 -41 -8 -18 -24 -54 -36
-82 -29 -67 -57 -123 -80 -160 -10 -16 -28 -47 -40 -69 -60 -110 -258 -334
-394 -445 -222 -182 -484 -314 -736 -370 -52 -12 -115 -27 -140 -33 -63 -15
-420 -22 -505 -9 -179 26 -324 61 -420 102 -11 4 -45 18 -75 31 -351 144 -662
413 -862 743 -46 76 -118 216 -118 230 0 5 -6 21 -13 35 -31 59 -80 218 -100
325 -47 243 -49 467 -6 695 6 30 15 77 19 103 5 27 13 54 18 60 6 7 13 31 17
54 4 24 11 45 16 49 5 3 9 12 9 20 0 18 24 74 89 204 133 270 345 513 594 684
38 25 70 46 72 46 2 0 24 13 48 30 60 40 243 130 265 130 5 0 23 7 38 15 16 8
38 15 49 15 12 0 25 4 31 10 10 10 55 21 164 42 30 5 82 16 115 23 87 19 442
19 520 0z"></path>
<path d="M3255 5940 c-88 -15 -159 -32 -192 -46 -17 -8 -37 -14 -45 -14 -7 0
-22 -7 -32 -15 -11 -8 -27 -15 -37 -15 -9 0 -22 -7 -29 -15 -7 -8 -18 -15 -26
-15 -33 0 -236 -154 -330 -252 -93 -96 -189 -221 -240 -313 -64 -115 -123
-239 -118 -247 10 -15 2562 -7 2575 8 6 8 6 14 0 18 -9 6 -16 21 -73 144 -12
26 -39 75 -60 110 -21 34 -38 64 -38 67 0 3 -34 49 -75 104 -110 145 -251 273
-374 338 -20 11 -59 31 -125 65 -22 11 -83 31 -186 60 -64 18 -108 21 -310 23
-129 2 -257 -1 -285 -5z"></path>
<path d="M2176 4902 c-7 -11 -10 -188 -3 -199 4 -7 2549 -11 2640 -4 16 1 17
11 15 104 l-3 102 -1322 3 c-727 1 -1324 -2 -1327 -6z"></path>
<path d="M2665 4628 c-16 -4 -108 -8 -203 -7 -95 1 -175 -1 -178 -4 -3 -2 17
-29 44 -58 l50 -54 74 0 c54 0 81 5 101 18 14 9 33 17 40 17 8 0 20 7 27 15 7
8 20 15 29 15 23 0 68 48 55 59 -5 5 -22 4 -39 -1z"></path>
<path d="M3135 4630 c-12 -19 10 -32 51 -28 27 2 39 8 39 18 0 19 -79 27 -90
10z"></path>
<path d="M4291 4627 c-13 -17 -5 -27 24 -27 12 0 25 3 28 7 9 8 -12 33 -28 33
-7 0 -18 -6 -24 -13z"></path>
<path d="M4646 4632 c-6 -10 45 -53 78 -65 14 -6 17 -13 11 -35 -8 -34 -30
-57 -47 -48 -7 3 -26 15 -43 26 -16 11 -39 24 -50 29 -11 5 -37 21 -58 35 -21
14 -41 26 -45 26 -4 0 -38 -20 -75 -45 -38 -25 -81 -45 -95 -45 -15 0 -60 14
-101 30 -71 29 -77 30 -246 30 -112 0 -176 -4 -180 -11 -4 -5 -17 -15 -28 -20
-12 -6 -42 -21 -67 -34 -25 -13 -52 -24 -61 -24 -9 -1 -33 -8 -52 -16 -20 -8
-60 -15 -89 -15 -45 0 -59 5 -86 30 -18 16 -39 46 -48 65 -8 19 -19 35 -24 35
-5 0 -30 -16 -56 -35 -41 -31 -52 -35 -107 -35 -59 0 -65 2 -117 45 -100 82
-158 74 -347 -48 -24 -15 -47 -27 -52 -27 -5 0 -14 -7 -21 -15 -7 -8 -23 -15
-35 -15 -12 0 -28 -6 -35 -14 -6 -8 -20 -16 -31 -18 -34 -5 -21 -23 14 -19 17
2 553 5 1190 7 637 2 1163 6 1168 10 11 7 12 174 0 192 -5 9 -40 14 -117 15
-60 2 -116 6 -125 10 -10 5 -20 4 -23 -1z"></path>
<path d="M2090 4616 c-13 -13 -13 -193 0 -201 6 -4 63 -8 128 -9 64 -2 128 -5
142 -7 29 -5 40 14 13 21 -64 18 -173 135 -173 186 0 16 -7 19 -50 19 -28 0
-55 -4 -60 -9z"></path>
<path d="M3432 4612 c-2 -7 8 -26 24 -43 31 -33 66 -37 110 -14 16 8 42 15 57
15 25 0 87 35 87 50 0 3 -61 6 -136 5 -103 0 -138 -3 -142 -13z"></path>
<path d="M2210 4285 c-9 -11 -11 -43 -8 -113 4 -83 8 -103 28 -130 l24 -32
1247 0 1247 0 21 36 c27 46 42 214 21 239 -11 13 -155 15 -1290 15 -1128 0
-1279 -2 -1290 -15z"></path>
</g>
</svg>