 <svg version="1.0" xmlns="http://www.w3.org/2000/svg" width="700.000000pt" height="863.000000pt" viewBox="0 0 700.000000 863.000000" preserveAspectRatio="xMidYMid meet">
<metadata>
Created by potrace 1.12, written by Peter Selinger 2001-2015
</metadata>
<g transform="translate(0.000000,863.000000) scale(0.100000,-0.100000)" fill="#000000" stroke="none">
<path d="M3065 8279 c-444 -68 -883 -236 -1256 -480 -170 -112 -302 -221 -475
-393 -415 -415 -686 -902 -825 -1482 -44 -186 -58 -295 -65 -519 -15 -462 29
-766 167 -1172 226 -662 569 -1181 1430 -2159 831 -944 1119 -1292 1329 -1609
118 -179 129 -179 255 5 81 118 306 415 454 599 145 182 258 313 675 786 912
1034 1160 1363 1421 1887 200 402 314 777 366 1203 16 128 16 491 0 620 -86
717 -392 1356 -886 1850 -455 455 -1051 756 -1690 856 -116 18 -194 22 -455
25 -276 3 -331 1 -445 -17z m692 -1961 l28 -42 3 -674 3 -675 -38 -39 -37 -38
-921 0 c-506 1 -952 5 -991 9 -50 6 -81 16 -103 32 l-32 23 3 693 3 692 22 22
c12 12 39 25 60 29 21 4 473 8 1005 9 l968 1 27 -42z m1348 -680 l227 -342 -7
-385 c-3 -212 -8 -398 -11 -413 -3 -14 -13 -30 -22 -34 -27 -13 -523 -17 -554
-5 -22 8 -28 17 -28 39 0 46 -59 153 -116 208 -167 164 -393 160 -549 -8 -54
-58 -102 -143 -114 -201 -7 -31 -9 -32 -66 -40 -33 -4 -328 -6 -655 -5 l-595
3 -6 46 c-9 59 -62 164 -107 212 -20 20 -34 38 -32 39 3 1 343 5 755 8 l750 5
5 592 c3 375 9 596 15 602 16 16 67 18 486 19 l396 2 228 -342z m-3135 -888
c0 -5 -22 -42 -49 -82 -27 -40 -58 -100 -71 -133 -29 -79 -35 -85 -87 -85 -33
0 -50 6 -68 25 -24 23 -25 31 -25 133 0 117 7 137 50 145 52 9 250 7 250 -3z
m376 -49 c131 -58 200 -207 159 -346 -23 -79 -114 -173 -194 -200 -182 -60
-370 79 -371 275 0 102 14 136 84 206 46 45 76 67 112 78 63 20 146 15 210
-13z m2075 8 c68 -20 153 -110 175 -184 43 -148 -18 -291 -152 -356 -111 -53
-236 -28 -330 66 -79 78 -102 179 -69 292 24 82 118 173 199 194 39 10 120 5
177 -12z"></path>
<path d="M4268 5861 c-65 -4 -123 -13 -131 -20 -23 -18 -30 -142 -22 -393 l8
-229 492 3 c533 3 525 2 525 57 0 32 -123 246 -249 435 -66 100 -92 131 -114
137 -44 12 -379 18 -509 10z"></path>
</g>
</svg>