<?xml version="1.0" encoding="utf-8"?>
<!-- Generator: Adobe Illustrator 12.0.1, SVG Export Plug-In . SVG Version: 6.00 Build 51448)  -->
<!DOCTYPE svg PUBLIC "-//W3C//DTD SVG 1.1//EN" "http://www.w3.org/Graphics/SVG/1.1/DTD/svg11.dtd" [
<!ENTITY ns_svg "http://www.w3.org/2000/svg">
<!ENTITY ns_xlink "http://www.w3.org/1999/xlink">
]>
<svg xmlns="http://www.w3.org/2000/svg" xmlns:xlink="http://www.w3.org/1999/xlink" xmlns:svg="http://www.w3.org/2000/svg" xmlns:dc="http://purl.org/dc/elements/1.1/" xmlns:cc="http://web.resource.org/cc/" xmlns:rdf="http://www.w3.org/1999/02/22-rdf-syntax-ns#" version="1.1" id="Layer_1" width="370.535" height="347.657" viewBox="0 0 370.535 347.657" overflow="visible" enable-background="new 0 0 370.535 347.657" xml:space="preserve">
<g>
	<path fill-rule="evenodd" clip-rule="evenodd" fill="#4B3900" d="M236.07,24.003c0.861,7.114-11.128,9.163-14.894,4.583   C218.312,23.18,232.4,16.393,236.07,24.003z"/>
	<path fill-rule="evenodd" clip-rule="evenodd" fill="#4B3900" d="M140.972,35.461c3.879,0.703,8.848,0.318,8.019,5.729   C145.89,39.71,141.913,39.103,140.972,35.461z"/>
	<path fill-rule="evenodd" clip-rule="evenodd" fill="#4B3900" d="M239.509,45.772c1.273,4.346-5.451,9.538-8.021,13.75   c-2.842-0.595-4.081-2.793-5.728-4.583C226.131,48.157,233.271,39.496,239.509,45.772z"/>
	<path fill-rule="evenodd" clip-rule="evenodd" fill="#4B3900" d="M157.013,46.918c-1.047,2.009-2.129,3.981-5.729,3.438   c0-1.146,0-2.292,0-3.438C154.134,46.793,154.831,44.772,157.013,46.918z"/>
	<path fill-rule="evenodd" clip-rule="evenodd" fill="#4B3900" d="M242.945,64.105c5.393,0.481,1.452,3.653,3.438,8.021   C241.201,73.469,242.372,65.016,242.945,64.105z"/>
	<path fill-rule="evenodd" clip-rule="evenodd" fill="#4B3900" d="M217.739,65.251c5.204-0.471,7.288,6.487,5.729,9.166   C217.804,75.116,218.188,69.768,217.739,65.251z"/>
	<path fill-rule="evenodd" clip-rule="evenodd" fill="#4B3900" d="M267.008,67.543c1.527,0,3.054,0,4.582,0   c1.421,3.312,0.585,5.222-3.438,5.728C267.19,71.942,266.642,70.2,267.008,67.543z"/>
	<path fill-rule="evenodd" clip-rule="evenodd" fill="#4B3900" d="M165.032,73.271c2.998-0.323,4.928,0.418,4.584,3.438   C167.473,78.959,164.095,77.372,165.032,73.271z"/>
	<path fill-rule="evenodd" clip-rule="evenodd" fill="#4B3900" d="M177.637,80.146c-1.465,1.567-5.409,1.567-6.875,0   C170.547,74.535,177.851,74.535,177.637,80.146z"/>
	<path fill-rule="evenodd" clip-rule="evenodd" fill="#4B3900" d="M73.371,81.292c-4.854-1.021-5.824,0.718-9.166-2.292   C65.606,74.368,72.572,78.341,73.371,81.292z"/>
	<path fill-rule="evenodd" clip-rule="evenodd" fill="#4B3900" d="M55.039,90.458c2.915,0.14,4.442,1.668,4.583,4.583   C56.442,97.656,52.688,93.904,55.039,90.458z"/>
	<path fill-rule="evenodd" clip-rule="evenodd" fill="#4B3900" d="M217.739,91.604c4.229-0.392,4.163,6.959,2.291,9.167   C217.117,99.933,213.294,92.816,217.739,91.604z"/>
	<path fill-rule="evenodd" clip-rule="evenodd" fill="#4B3900" d="M258.987,100.771c-3.902-2.01-4.269,0.371-5.729,3.437   c-2.914-0.14-4.442-1.667-4.583-4.583c3.908-2.777,6.05-0.607,6.874-6.875c3.127-0.834,2.307,2.277,4.584,2.292   C261.078,98.28,258.518,98.01,258.987,100.771z"/>
	<path fill-rule="evenodd" clip-rule="evenodd" fill="#F6E7A1" d="M237.218,95.041c2.759-0.469,2.489,2.093,5.728,1.146   c0.88,5.625,2.676,4.364,0,9.167C239.948,103.004,239.091,98.514,237.218,95.041z"/>
	<path fill-rule="evenodd" clip-rule="evenodd" fill="#4B3900" d="M30.978,101.917c4.228-0.027,7.889,0.513,8.02,4.583   C36.336,104.959,30.437,106.658,30.978,101.917z"/>
	<path fill-rule="evenodd" clip-rule="evenodd" fill="#4B3900" d="M223.468,124.832c-0.484-3.921,3.432-3.443,4.584-5.729   c-3.038-4.537-9.082-4.306-13.749-4.583c2.811-4.826,6.631-8.646,11.457-11.458c0.652,3.708-0.347,5.763-2.292,6.875   c8.474,2.286,7.063,8.579,6.875,14.895C228.878,126.398,224.934,126.398,223.468,124.832z"/>
	<path fill-rule="evenodd" clip-rule="evenodd" fill="#4B3900" d="M92.849,106.5c1.095,6.442-1.554,9.138-3.438,12.603   c-4.076-0.506-5.017-4.147-8.02-5.729C79.804,104.464,87.835,102.476,92.849,106.5z"/>
	<path fill-rule="evenodd" clip-rule="evenodd" fill="#4B3900" d="M233.779,108.791c0.486,2.395-0.785,3.033-1.146,4.583   c-1.505-0.405-1.802-2.017-3.438-2.292C229.472,109.067,231.168,108.471,233.779,108.791z"/>
	<path fill-rule="evenodd" clip-rule="evenodd" fill="#4B3900" d="M181.075,135.143c-9.271-12.993,8.89-25.351,10.311-11.458   C191.963,129.334,187.348,133.556,181.075,135.143z"/>
	<path fill-rule="evenodd" clip-rule="evenodd" fill="#4B3900" d="M40.144,117.957c14.85,9.208-1.606,27.021-8.02,35.519   c-2.14-2.038,0.931-2.912,0-6.874c-4.113-0.949-5.543,2.583-8.021,0c-1.689-7.037,5.778-4.917,9.166-6.875   C29.681,129.979,34.709,122.15,40.144,117.957z"/>
	<path fill-rule="evenodd" clip-rule="evenodd" fill="#4B3900" d="M238.361,125.977c2.998-0.323,4.929,0.418,4.584,3.438   c-1.019,0.89-2.588,1.232-4.584,1.146C238.361,129.032,238.361,127.505,238.361,125.977z"/>
	<path fill-rule="evenodd" clip-rule="evenodd" fill="#4B3900" d="M202.843,128.269c3.169,1.034,5.396,3.009,6.876,5.729   C207.629,135.513,202.305,132.928,202.843,128.269z"/>
	<path fill-rule="evenodd" clip-rule="evenodd" fill="#4B3900" d="M14.937,129.415c1.504,0.405,1.803,2.017,3.438,2.292   c-0.276,2.016-1.972,2.612-4.583,2.292C13.306,131.603,14.576,130.964,14.937,129.415z"/>
	<path fill-rule="evenodd" clip-rule="evenodd" fill="#4B3900" d="M234.925,132.852c2.657-0.365,4.4,0.184,5.729,1.146   c-0.605,0.922-1.195,1.86-1.146,3.437C235.922,137.966,234.395,136.439,234.925,132.852z"/>
	<path fill-rule="evenodd" clip-rule="evenodd" fill="#4B3900" d="M110.036,133.998c4.412-0.903,4.412,5.486,0,4.583   C110.036,137.053,110.036,135.525,110.036,133.998z"/>
	<path fill-rule="evenodd" clip-rule="evenodd" fill="#4B3900" d="M97.432,136.289c3.408,0.1,3.066,6.833-1.145,5.729   C95.015,138.42,95.75,138.991,97.432,136.289z"/>
	<path fill-rule="evenodd" clip-rule="evenodd" fill="#4B3900" d="M61.914,140.872c2.916,0.141,4.443,1.668,4.583,4.583   c-1.02,0.89-2.588,1.231-4.583,1.146C60.443,145.096,60.443,142.378,61.914,140.872z"/>
	<path fill-rule="evenodd" clip-rule="evenodd" fill="#F6E7A1" d="M222.321,140.872c3.668-0.229,4.954,1.92,5.73,4.583   c-1.356,1.319-4.051,1.297-6.875,1.146C220.706,143.841,223.269,144.11,222.321,140.872z"/>
	<path fill-rule="evenodd" clip-rule="evenodd" fill="#4B3900" d="M275.027,140.872c2.997-0.323,4.929,0.419,4.584,3.438   C277.647,146.379,275.105,143.958,275.027,140.872z"/>
	<path fill-rule="evenodd" clip-rule="evenodd" fill="#4B3900" d="M112.328,146.602c-1.528,0-3.056,0-4.583,0   C106.72,141.269,113.816,140.727,112.328,146.602z"/>
	<path fill-rule="evenodd" clip-rule="evenodd" fill="#4B3900" d="M285.339,143.163c2.54-0.63,1.633,2.188,3.438,2.292   c-2.542,2.227-6.381,8.028-9.166,3.438C279.454,144.918,285.414,147.059,285.339,143.163z"/>
	<path fill-rule="evenodd" clip-rule="evenodd" fill="#4B3900" d="M42.435,144.31c1.528,0,3.056,0,4.583,0   c0.485,2.395-0.785,3.034-1.146,4.583C42.854,149.238,42.112,147.307,42.435,144.31z"/>
	<path fill-rule="evenodd" clip-rule="evenodd" fill="#4B3900" d="M55.039,146.602c2.638,2.773-1.167,5.565-1.146,9.166   C48.538,155.052,51.271,147.317,55.039,146.602z"/>
	<path fill-rule="evenodd" clip-rule="evenodd" fill="#4B3900" d="M195.969,146.602c2.328,0.834,4.68,3.447,2.291,5.728   C194.294,153.133,194.151,148.313,195.969,146.602z"/>
	<path fill-rule="evenodd" clip-rule="evenodd" fill="#4B3900" d="M159.304,150.039c1.506,0.404,1.803,2.017,3.438,2.291   c-1.426,3.538-1.358,8.572-6.876,8.021C153.146,156.794,157.903,153.057,159.304,150.039z"/>
	<path fill-rule="evenodd" clip-rule="evenodd" fill="#4B3900" d="M189.094,151.185c5.924-0.958,3.785,6.145,9.166,5.729   c-1.095,4.634-5.326,6.129-9.166,8.021C186.409,161.041,186.409,155.078,189.094,151.185z"/>
	<path fill-rule="evenodd" clip-rule="evenodd" fill="#4B3900" d="M144.409,152.33c1.146,0,2.291,0,3.438,0c0,1.528,0,3.056,0,4.583   C144.827,157.259,144.086,155.327,144.409,152.33z"/>
	<path fill-rule="evenodd" clip-rule="evenodd" fill="#4B3900" d="M263.57,159.205c1.255,3.083,0.215,5.875-1.146,9.166   c-7.857-1.69-13.395-5.703-18.332-10.311C247.34,150.482,258.407,158.029,263.57,159.205z"/>
	<path fill-rule="evenodd" clip-rule="evenodd" fill="#4B3900" d="M136.389,155.768c1.851-0.323,1.972,1.083,3.437,1.146   c0.31,4.75-1.505,4.464,0,8.021c-2.566,0.785-5.741,3.443-8.019,1.146C132.639,159.99,137.348,161.477,136.389,155.768z"/>
	<path fill-rule="evenodd" clip-rule="evenodd" fill="#4B3900" d="M96.287,156.913c1.146,0,2.292,0,3.438,0   c0.225,3.281,0.142,6.253-3.438,5.729C96.287,160.733,96.287,158.823,96.287,156.913z"/>
	<path fill-rule="evenodd" clip-rule="evenodd" fill="#4B3900" d="M114.619,156.913c2.145,1.293,5.52,1.355,4.583,5.729   c-1.332-0.187-2.039,0.253-2.292,1.146C114.193,163.154,112.156,159.357,114.619,156.913z"/>
	<path fill-rule="evenodd" clip-rule="evenodd" fill="#4B3900" d="M124.931,159.205c3.02-0.346,3.76,1.587,3.438,4.583   c-2.997,0.323-4.929-0.418-4.583-3.438C124.76,160.562,124.867,159.903,124.931,159.205z"/>
	<path fill-rule="evenodd" clip-rule="evenodd" fill="#4B3900" d="M140.972,159.205c2.825-0.151,5.52-0.174,6.875,1.146   c-0.339,4.626-0.991,8.94-4.583,10.312C137.204,169.629,142.154,164.707,140.972,159.205z"/>
	<path fill-rule="evenodd" clip-rule="evenodd" fill="#4B3900" d="M165.032,160.351c1.851-0.323,1.974,1.083,3.439,1.146   c0.346,3.019-1.587,3.761-4.583,3.438C163.402,162.539,164.672,161.9,165.032,160.351z"/>
	<path fill-rule="evenodd" clip-rule="evenodd" fill="#4B3900" d="M73.371,162.642c0.921-0.606,1.86-1.195,3.438-1.146   c0.961,1.33,1.511,3.072,1.146,5.729C74.367,167.756,72.84,166.229,73.371,162.642z"/>
	<path fill-rule="evenodd" clip-rule="evenodd" fill="#4B3900" d="M65.351,167.225c1.146,0,2.291,0,3.438,0   c0.485,2.395-0.786,3.035-1.146,4.583C65.627,171.532,65.03,169.837,65.351,167.225z"/>
	<path fill-rule="evenodd" clip-rule="evenodd" fill="#4B3900" d="M126.076,167.225c0,1.528,0,3.056,0,4.583   c-2.996,0.323-4.929-0.418-4.582-3.438C122.514,167.481,124.08,167.139,126.076,167.225z"/>
	<path fill-rule="evenodd" clip-rule="evenodd" fill="#4B3900" d="M181.075,167.225c1.527,0,3.056,0,4.582,0   C186.561,171.637,180.172,171.637,181.075,167.225z"/>
	<path fill-rule="evenodd" clip-rule="evenodd" fill="#4B3900" d="M161.596,169.517C170.641,164.639,164.51,179.354,161.596,169.517   L161.596,169.517z"/>
	<path fill-rule="evenodd" clip-rule="evenodd" fill="#4B3900" d="M332.316,169.517c1.146,0,2.291,0,3.438,0   c0,1.909,0,3.819,0,5.728c-2.365-1.835-7.343-1.06-8.021-4.583c1.852-0.323,1.975,1.083,3.438,1.146   C332.285,171.776,332.061,170.406,332.316,169.517z"/>
	<path fill-rule="evenodd" clip-rule="evenodd" fill="#4B3900" d="M130.66,172.954c2.997-0.323,4.929,0.418,4.583,3.437   c-1.02,0.89-2.587,1.232-4.583,1.146C130.66,176.009,130.66,174.481,130.66,172.954z"/>
	<path fill-rule="evenodd" clip-rule="evenodd" fill="#4B3900" d="M151.284,174.1c3.223,0.215,4.881,1.994,4.582,5.729   c-1.463,1.568-5.41,1.568-6.875,0C148.815,176.979,150.792,176.281,151.284,174.1z"/>
	<path fill-rule="evenodd" clip-rule="evenodd" fill="#4B3900" d="M175.345,179.828c-3.28,0.227-6.253,0.143-5.729-3.437   C171.825,174.163,176.631,175.193,175.345,179.828z"/>
	<path fill-rule="evenodd" clip-rule="evenodd" fill="#4B3900" d="M331.17,176.391c2.396-0.485,3.035,0.786,4.584,1.146   c-1.964,4.801-1.604,5.113-1.146,11.458c-5.546-0.565-5.941-6.279-9.166-9.167c3.652-0.978,4.349,0.998,5.729,2.292   C334.532,181.146,329.68,179.236,331.17,176.391z"/>
	<path fill-rule="evenodd" clip-rule="evenodd" fill="#4B3900" d="M138.681,177.537c1.528,0,3.055,0,4.583,0   c0.485,2.395-0.787,3.034-1.146,4.583C140.444,181.12,137.681,181.21,138.681,177.537z"/>
	<path fill-rule="evenodd" clip-rule="evenodd" fill="#4B3900" d="M129.516,184.411c2.995-0.323,4.927,0.419,4.582,3.438   c-1.505,1.471-4.224,1.471-5.729,0C128.976,186.927,129.563,185.989,129.516,184.411z"/>
	<path fill-rule="evenodd" clip-rule="evenodd" fill="#4B3900" d="M325.441,186.704c4.411-0.903,4.411,5.486,0,4.583   C325.441,189.759,325.441,188.231,325.441,186.704z"/>
	<path fill-rule="evenodd" clip-rule="evenodd" fill="#4B3900" d="M335.754,198.161c-5.04,1.46-7.292-2.885-4.584-5.729   C334.772,192.267,335.106,195.371,335.754,198.161z"/>
	<path fill-rule="evenodd" clip-rule="evenodd" fill="#4B3900" d="M323.15,211.91c-1.59,11.014-8.96,16.247-18.333,19.479   c-0.575-6.305,5.102-6.357,6.875-10.312c-0.275-3.161-3.378-3.496-5.729-4.583C304.748,203.941,318.841,204.468,323.15,211.91z"/>
	<path fill-rule="evenodd" clip-rule="evenodd" fill="#4B3900" d="M252.111,231.389c2.017,0.276,2.613,1.972,2.291,4.583   c-1.145,0-2.29,0-3.436,0C250.482,233.577,251.751,232.938,252.111,231.389z"/>
	<path fill-rule="evenodd" clip-rule="evenodd" fill="#4B3900" d="M285.339,233.681c1.021-0.89,2.589-1.232,4.584-1.146   c0.25,4.171,5.224,7.688,2.291,11.457C285.993,242.607,289.304,237.994,285.339,233.681z"/>
	<path fill-rule="evenodd" clip-rule="evenodd" fill="#4B3900" d="M158.158,249.721c0.665,4.485-0.985,6.653-2.292,9.166   c-5.697,0.903-6.447,0.353-11.457-1.145C138.81,246.521,153.33,241.361,158.158,249.721z"/>
	<path fill-rule="evenodd" clip-rule="evenodd" fill="#4B3900" d="M197.115,278.365c-4.84-2.798-9.09-6.188-12.604-10.312   C184.882,241.445,213.836,267.607,197.115,278.365z"/>
	<path fill-rule="evenodd" clip-rule="evenodd" fill="#4B3900" d="M221.177,263.471c1.673,0.999,4.437,0.91,3.437,4.582   c-1.527,0-3.055,0-4.583,0C219.545,265.659,220.815,265.019,221.177,263.471z"/>
	<path fill-rule="evenodd" clip-rule="evenodd" fill="#4B3900" d="M171.909,268.053c2.015,0.277,2.61,1.972,2.291,4.583   c-1.147,0-2.291,0-3.438,0C170.277,270.241,171.547,269.603,171.909,268.053z"/>
	<path fill-rule="evenodd" clip-rule="evenodd" fill="#4B3900" d="M167.325,271.49c2.939,0.117,1.841,4.271,3.437,5.729   c12.01-5.447,14.095,7.846,9.166,17.186c-4.774-1.218-5.053-0.296-10.312,0c0.714-6.276-0.667-16.708-5.729-20.622   C164.811,272.797,167.025,273.102,167.325,271.49z"/>
	<path fill-rule="evenodd" clip-rule="evenodd" fill="#4B3900" d="M159.304,277.22c6.836,0.251,11.572,17.612,4.584,20.623   C163.428,292.271,160.614,285.057,159.304,277.22z"/>
	<path fill-rule="evenodd" clip-rule="evenodd" fill="#F6E7A1" d="M153.575,297.843c0.756,1.575,3.745,10.74,5.729,14.896   c-5,0.801-5.094-3.307-9.166-3.437C150.093,304.292,154.307,303.542,153.575,297.843z"/>
	<path fill-rule="evenodd" clip-rule="evenodd" fill="#F6E7A1" d="M250.967,109.937c-3.907-1.059-2.367-7.564-4.584-10.312   c3.426-2.305,3.668-7.792,6.875-10.313c-2.518-3.896-4.979-6.985,0-10.312c-0.642-1.649-1.788-2.796-3.438-3.437   c-5.588,0.141-3.382,8.075-8.021,9.166c-0.688,4.126,3.498,3.376,3.437,6.875c-3.321,0.305-6.812-2.101-10.312,2.291   c-2.571-2.774-1.917-8.776-9.165-6.875c-0.948-3.237,1.614-2.968,1.146-5.729c3.9-0.082,4.268,3.371,5.729,5.729   c16.259-0.546,2.845-14.8,6.875-20.624c-0.508-1.02-1.006-2.049-2.291-2.292c-5.956-0.4-1.374,5.381-3.438,6.875   c-4.57-1.133-3.449,3.424-8.02,2.292c-0.828,3.501,1.171,4.175,1.146,6.875c-1.46-1.562-5.612-1.771-5.729,1.146   c-1.993-3.01-5.612-5.078-8.021-4.583c-0.855-3.53,3.95-1.397,2.291-5.729c-3.031-3.692-7.524,0.801-5.728,5.729   c-5.228-0.481-4.352-3.653-3.438-8.02c-1.929-4.816-11.094-1.584-13.75,0c-8.19-8.941-13.721-6.974-27.5-5.729   c-3.92-5.52-13.249-6.829-16.041-10.312c-3.656,0.162-3.401,4.236-6.874,4.583c2.819-11.31-5.794-5.599-5.729-12.604   c-4.805,1.195-8.143,6.42-5.729,11.458c-5.757-1.215-2.755-10.869,0-14.896c-6.545-0.967-9.317,11.137-12.604,17.188   c-4.276-3.906,3.242-13.771,5.729-18.333c-6.94-1.194-10.007,11.367-14.895,16.041c-0.75-7.08,8.773-24.011,16.041-19.479   c3.593-0.792,1.495-3.056,1.146-5.728c4.002-0.201,5.768-2.637,6.875-5.729c15.916,2.738,27.009-13.221,45.833-10.312   c3.68-2.319,9.301-5.262,14.894-2.291c1.155-4.937,11.592-4.74,11.457,1.146c2.199-2.386,4.379-4.789,8.021-5.729   c2.119,0.172,0.704,3.879,2.291,4.583c2.644,0.351,1.273-3.31,3.438-3.438c18.778,0.546,34.697,5.788,43.539,18.333   c7.376,10.466,14.12,19.949,11.458,33.228c-3.505-2.394-1.918-6.492-4.583-11.458c-7.896-1.652-8.166-10.931-19.479-9.166   c-1.07,0.84-1.734,2.084-2.293,3.438c1.79,6.895,8.175,15.106,16.043,9.167c1.075,4.269,3.075,7.619,3.438,12.603   c3.556,1.504,3.27-0.31,8.02,0c-0.172,6.32-3.507,9.478-3.438,16.041c-11.723-1.444-4.607-16.106-9.166-20.624   c-4.051,5.034-3.24-2.047-6.875-3.437c-7.776-0.567-5.696,8.726-1.146,10.312c4.024,0.671,3.771-5.417,6.877-2.292   c-0.204,6.29-3.66,9.327-6.877,12.603c-0.188,8.225,5.131,15.878,12.605,6.875c2.707,2.844,0.456,7.189-4.584,5.729   C266.597,102.573,250.774,104.363,250.967,109.937z M260.133,95.041c-2.277-0.015-1.457-3.125-4.584-2.292   c-0.824,6.268-2.966,4.098-6.874,6.875c0.141,2.915,1.669,4.442,4.583,4.583c1.461-3.066,1.827-5.447,5.729-3.437   C258.518,98.01,261.078,98.28,260.133,95.041z M221.177,28.586c3.766,4.58,15.755,2.531,14.894-4.583   C232.4,16.393,218.312,23.18,221.177,28.586z M148.991,41.189c0.829-5.41-4.14-5.025-8.019-5.729   C141.913,39.103,145.89,39.71,148.991,41.189z M225.76,54.939c1.646,1.79,2.886,3.988,5.728,4.583   c2.57-4.212,9.295-9.404,8.021-13.75C233.271,39.496,226.131,48.157,225.76,54.939z M151.284,46.918c0,1.146,0,2.292,0,3.438   c3.6,0.543,4.682-1.429,5.729-3.438C154.831,44.772,154.134,46.793,151.284,46.918z M246.383,72.126   c-1.985-4.367,1.955-7.539-3.438-8.021C242.372,65.016,241.201,73.469,246.383,72.126z M223.468,74.417   c1.56-2.679-0.524-9.637-5.729-9.166C218.188,69.768,217.804,75.116,223.468,74.417z M268.152,73.271   c4.022-0.506,4.858-2.416,3.438-5.728c-1.528,0-3.055,0-4.582,0C266.642,70.2,267.19,71.942,268.152,73.271z"/>
	<path fill-rule="evenodd" clip-rule="evenodd" fill="#F6E7A1" d="M233.779,124.832c3.824,1.151,3.758-1.59,3.438-4.583   c2.182,2.147,2.877,0.126,5.728,0c0.562,5.958,5.18,14.749,0,19.479c-3.501,0.828-4.174-1.171-6.875-1.146   c-4.412,0.169,0.419,9.585-6.874,6.875c3.075-3.433,1.702-6.105,1.146-11.458c2.61,0.321,4.307-0.276,4.582-2.292   c0.835-3.126-2.275-2.306-2.291-4.583c-3.209,1.318-5.957,1.318-9.166,0c-1.197-2.621-0.729-6.912-2.291-9.166   c-4.292-0.09-3.465,4.939-9.165,3.438c0,1.146,0,2.291,0,3.437c2.755,4.403,6.087-3.233,8.019,0   c-3.965,5.386,2.308,8.676,2.291,13.749c-6.572,0.081-2.976-10.008-9.166-10.312c-5.448,3.734,1.91,6.863,2.291,11.458   c-1.328-0.962-3.07-1.511-5.728-1.146c-3.334,4.43,4.081,4.52,1.146,8.022c-8.054-0.521-0.26-10.939-9.166-11.459   c-1.661,9.191,3.757,14.329,11.457,17.187c4.935,1.095,4.479-6.641,8.021-3.437c-3.194,7.167-13.488,9.234-18.334,11.458   c-0.946,3.238,1.615,2.968,1.147,5.729c-5.54-2.13-6.356,0.376-11.459,1.146c-2.185,11.259-16.461,3.931-18.331,16.041   c-2.057,0.146-2.418-1.402-4.584-1.146c-5.73,0.763-0.725,12.261-6.875,12.604c-0.918-5.883,1.228-8.702,2.29-12.604   c0.196-2.867-1.757-3.587-3.436-4.583c-6.177,2.99-2.532,15.801-6.875,20.624c-6.006-2.196,1.251-11.562-3.438-13.75   c-5.247,5.111-4.121,15.519-4.583,21.771c-7.793-0.636,2.2-12.646-8.019-11.458c-4.678,5.449,3.182,13.114,0,17.187   c-6.282-2.12-0.472-16.335-6.875-18.332c-3.338,7.184,1.596,15.953,2.291,22.915c-3.239-0.946-2.968,1.615-5.729,1.146   c-6.6-8.471-1.089-24.32-5.729-30.935c-5.555,7.175,0.222,26.47,1.146,33.227c-11.107,0.031-4.743-17.409-10.312-22.915   c-3.669,2.926-0.621,12.96,0,20.623c-6.283-2.5-3.289-14.279-8.02-18.331c-2.573,2.648-0.92,10.791,0,13.748   c-6.076-1.943-2.205-13.837-6.875-17.186c-2.641,3.088-0.407,11.05-1.146,16.04c-3.977-5.943-4.03-19.624-5.729-30.936   c-6.409,0.849-4.088,10.425-4.583,17.187c-7.469-3.267-0.331-17.458-3.438-22.916c-3.336,1.629-3.144,6.786-4.583,10.312   c-5.057-3.221,0.967-10.547-3.437-13.75c-5.233,10.087-2.534,28.099,1.146,37.811c5.163-1.932-0.321-7.386,1.146-12.604   c4.591,3.431,2.777,13.264,8.021,16.04c-2.704-2.262-7.669-2.261-11.458-3.437c-2.562-7.368-4.795-15.065-6.875-22.916   c-4.952,1.609,0.365,6.407-1.146,11.458c-2.149-2.816-2.081-7.849-3.437-11.458c-8.861,1.803,0.582,15.492,0,16.041   c-7.696-1.604-3.086-18.556-11.458-16.041c0.018-5.688-5.471-19.878,2.292-19.479c-1.024,5.559-2.008,15.824,9.166,14.895   c3.063-4.972-2.698-14.585,0-19.478c9.555,1.834,15.734-8.936,26.352-3.437c2.167-6.423,7.274-2.788,9.167-9.166   c-0.218-0.929-1.15-1.143-1.146-2.292c-5.446,2.606-13.026,4.576-18.333,1.146c-1.444,2.757-2.312,6.089-4.583,8.02   c-4.879-0.677-7.579,0.824-11.458,1.146c0.339-4.448,0.339-5.865,0-10.312c-4.667,1.76-8.116,12.447-6.875,19.478   c-4.15-1.921-6.53-7.357-11.458-2.292c0-3.055,0-6.111,0-9.166c-9.581,5.894-2.137,25.911-2.292,36.665   c-11.096-3.592-2.886-22.04-6.874-33.228c-6.186,4.537-3.352,13.857-3.437,20.623c-5.602-5.727-0.364-9.588-2.292-19.478   c-4.567-0.748-3.282,4.356-3.437,8.02c-1.848,2.143-0.734-8.367-3.438-9.166c-1.41,0.5-2.353,1.466-2.291,3.437   c-5.79-1.031,2.884-11.042-3.438-12.603c-4.913,0.894,1.038,5.542-2.292,8.021c-3.258-5.685-0.559-12.015-5.728-11.458   c-0.273-4.475,6.311-2.092,5.728-6.875c-0.481-2.573-6.08-0.031-6.874-2.292c0.65-5.942,5.192-4.816,1.146-10.312   c7.016-2.585,9.103-1.42,17.186-2.292c0-1.528,0-3.056,0-4.583c-6.659,1.442-10.092,2.077-14.895,0   c7.121-1.879,1.878-9.788,6.875-12.603c2.514,1.306,4.682,2.957,9.167,2.292c-3.958-4.949,0.078-10.932,3.438-14.896   c3.862,1.071,3.322,5.205,6.874,1.146c-0.576-4.444,5.132-6.262,8.02-10.312c15.73,0.835,15.699-14.092,30.937-13.749   c3.681-1.007,1.57,3.776,4.583,3.438c5.479-0.632,6.331-5.891,11.458-6.875c-0.099,1.626-0.189,3.244,1.146,3.437   c3.699,1.025,1.61-3.737,3.438-4.583c30.256-5.22,67.064-1.137,95.099,8.02c0.961,1.33,1.513,3.071,1.146,5.729   c17.922,1.448,26.775,10.16,35.52,17.187c-0.015,2.277-3.126,1.458-2.291,4.583c0.218,0.928,1.149,1.142,1.146,2.292   c2.61,0.319,4.307-0.276,4.582-2.292c4.106,2.004,4.261,7.96,8.021,10.312C240.062,118.891,234.155,119.096,233.779,124.832z    M239.509,137.435c-0.05-1.577,0.54-2.515,1.146-3.437c-1.329-0.961-3.072-1.511-5.729-1.146   C234.395,136.439,235.922,137.966,239.509,137.435z M230.343,124.832c0.188-6.316,1.599-12.609-6.875-14.895   c1.945-1.112,2.944-3.167,2.292-6.875c-4.826,2.812-8.646,6.632-11.457,11.458c4.667,0.277,10.711,0.046,13.749,4.583   c-1.152,2.286-5.068,1.808-4.584,5.729C224.934,126.398,228.878,126.398,230.343,124.832z M169.616,176.391   c-0.524,3.58,2.448,3.664,5.729,3.437C176.631,175.193,171.825,174.163,169.616,176.391z M77.954,167.225   c0.366-2.657-0.184-4.399-1.146-5.729c-1.577-0.049-2.516,0.54-3.438,1.146C72.84,166.229,74.367,167.756,77.954,167.225z    M64.205,79c3.342,3.01,4.312,1.271,9.166,2.292C72.572,78.341,65.606,74.368,64.205,79z M169.616,76.709   c0.344-3.019-1.587-3.761-4.584-3.438C164.095,77.372,167.473,78.959,169.616,76.709z M170.762,80.146   c1.466,1.567,5.41,1.567,6.875,0C177.851,74.535,170.547,74.535,170.762,80.146z M59.622,95.041   c-0.141-2.915-1.668-4.443-4.583-4.583C52.688,93.904,56.442,97.656,59.622,95.041z M220.03,100.771   c1.872-2.207,1.938-9.559-2.291-9.167C213.294,92.816,217.117,99.933,220.03,100.771z M38.998,106.5   c-0.131-4.07-3.792-4.61-8.02-4.583C30.437,106.658,36.336,104.959,38.998,106.5z M81.392,113.374   c3.003,1.581,3.944,5.223,8.02,5.729c1.883-3.465,4.532-6.161,3.438-12.603C87.835,102.476,79.804,104.464,81.392,113.374z    M229.196,111.083c1.636,0.274,1.933,1.887,3.438,2.292c0.36-1.55,1.632-2.188,1.146-4.583   C231.168,108.471,229.472,109.067,229.196,111.083z M191.386,123.686c-1.421-13.894-19.581-1.535-10.311,11.458   C187.348,133.556,191.963,129.334,191.386,123.686z M33.269,139.727c-3.388,1.959-10.855-0.162-9.166,6.875   c2.477,2.583,3.908-0.949,8.021,0c0.931,3.962-2.14,4.836,0,6.874c6.414-8.497,22.87-26.311,8.02-35.519   C34.709,122.15,29.681,129.979,33.269,139.727z M238.361,130.56c1.996,0.086,3.565-0.256,4.584-1.146   c0.345-3.019-1.586-3.761-4.584-3.438C238.361,127.505,238.361,129.032,238.361,130.56z M209.719,133.998   c-1.48-2.72-3.707-4.695-6.876-5.729C202.305,132.928,207.629,135.513,209.719,133.998z M13.791,133.998   c2.611,0.321,4.307-0.276,4.583-2.292c-1.635-0.274-1.933-1.886-3.438-2.292C14.576,130.964,13.306,131.603,13.791,133.998z    M110.036,138.58c4.412,0.903,4.412-5.485,0-4.583C110.036,135.525,110.036,137.053,110.036,138.58z M96.287,142.019   c4.211,1.103,4.553-5.629,1.145-5.729C95.75,138.991,95.015,138.42,96.287,142.019z M61.914,146.602   c1.995,0.085,3.563-0.256,4.583-1.146c-0.14-2.915-1.667-4.443-4.583-4.583C60.443,142.378,60.443,145.096,61.914,146.602z    M107.745,146.602c1.528,0,3.056,0,4.583,0C113.816,140.727,106.72,141.269,107.745,146.602z M45.872,148.893   c0.361-1.549,1.631-2.188,1.146-4.583c-1.528,0-3.056,0-4.583,0C42.112,147.307,42.854,149.238,45.872,148.893z M53.894,155.768   c-0.022-3.6,3.784-6.392,1.146-9.166C51.271,147.317,48.538,155.052,53.894,155.768z M198.26,152.33   c2.389-2.281,0.037-4.894-2.291-5.728C194.151,148.313,194.294,153.133,198.26,152.33z M155.866,160.351   c5.518,0.552,5.45-4.483,6.876-8.021c-1.635-0.274-1.932-1.887-3.438-2.291C157.903,153.057,153.146,156.794,155.866,160.351z    M189.094,164.934c3.84-1.891,8.071-3.386,9.166-8.021c-5.381,0.417-3.242-6.687-9.166-5.729   C186.409,155.078,186.409,161.041,189.094,164.934z M147.847,156.913c0-1.527,0-3.055,0-4.583c-1.147,0-2.292,0-3.438,0   C144.086,155.327,144.827,157.259,147.847,156.913z M131.807,166.08c2.278,2.297,5.453-0.361,8.019-1.146   c-1.505-3.556,0.31-3.27,0-8.021c-1.465-0.062-1.586-1.468-3.437-1.146C137.348,161.477,132.639,159.99,131.807,166.08z    M96.287,162.642c3.58,0.524,3.663-2.448,3.438-5.729c-1.146,0-2.292,0-3.438,0C96.287,158.823,96.287,160.733,96.287,162.642z    M116.91,163.788c0.253-0.893,0.96-1.333,2.292-1.146c0.938-4.374-2.438-4.436-4.583-5.729   C112.156,159.357,114.193,163.154,116.91,163.788z M123.785,160.351c-0.345,3.019,1.587,3.761,4.583,3.438   c0.322-2.996-0.418-4.929-3.438-4.583C124.867,159.903,124.76,160.562,123.785,160.351z M143.264,170.663   c3.593-1.372,4.245-5.686,4.583-10.312c-1.355-1.319-4.05-1.297-6.875-1.146C142.154,164.707,137.204,169.629,143.264,170.663z    M163.888,164.934c2.996,0.323,4.929-0.418,4.583-3.438c-1.465-0.063-1.588-1.468-3.439-1.146   C164.672,161.9,163.402,162.539,163.888,164.934z M67.642,171.808c0.361-1.548,1.631-2.188,1.146-4.583c-1.146,0-2.292,0-3.438,0   C65.03,169.837,65.627,171.532,67.642,171.808z M121.494,168.371c-0.347,3.019,1.586,3.761,4.582,3.438c0-1.527,0-3.055,0-4.583   C124.08,167.139,122.514,167.481,121.494,168.371z M185.657,167.225c-1.526,0-3.055,0-4.582,0   C180.172,171.637,186.561,171.637,185.657,167.225z M161.596,169.517C164.51,179.354,170.641,164.639,161.596,169.517   L161.596,169.517z M95.141,182.12c4.979,5.716,10.332,11.056,19.479,12.604c0.953-4.373-2.617-13.158-1.146-21.77   c-3.72,0.665-5.332-0.78-8.02-1.146C100.794,175.208,101.455,183.212,95.141,182.12z M130.66,177.537   c1.996,0.086,3.564-0.256,4.583-1.146c0.345-3.019-1.587-3.76-4.583-3.437C130.66,174.481,130.66,176.009,130.66,177.537z    M148.991,179.828c1.465,1.568,5.411,1.568,6.875,0c0.299-3.735-1.359-5.514-4.582-5.729   C150.792,176.281,148.815,176.979,148.991,179.828z M142.118,182.12c0.359-1.549,1.631-2.188,1.146-4.583c-1.528,0-3.055,0-4.583,0   C137.681,181.21,140.444,181.12,142.118,182.12z M128.369,187.849c1.505,1.471,4.224,1.471,5.729,0   c0.345-3.018-1.587-3.76-4.582-3.438C129.563,185.989,128.976,186.927,128.369,187.849z"/>
	<path fill-rule="evenodd" clip-rule="evenodd" fill="#4B3900" d="M264.715,105.354c15.723,2.503,29.371,12.263,29.79,26.352   c3.76,1.97,7.846,3.613,13.75,3.437c8.716,10.515,21.465,10.402,30.936,20.625c20.136,21.73,11.763,64.467,0,89.371   c8.638,0.489,19.76,1.387,27.5,5.728c3.874,8.829,5.738,18.492,1.145,27.499c-2.909,1.703-4.418,2.694-8.02,4.584   c-16.215,8.502-35.015,28.16-51.561,35.519c-6.931,3.081-25.48,9.771-35.519,10.312c-2.247,0.12-5.67-1.641-8.021-1.146   c-7.321,1.546-11.168,8.866-18.332,11.458c-15.378,5.564-31.45,2.914-46.977,6.874c-3.02,0.346-3.761-1.585-3.438-4.583   c-14.683,7.564-63.339,12.027-67.6-9.166c-2.09-10.392,3.319-17.251,11.457-21.77c-9.882-9.724-20.972-23.923-16.041-44.686   c-9.968,0.872-32.353,0.298-34.374-13.749C50.883,262.06,12.03,239.52,3.479,202.744c6.243-4.069,14.889-5.735,20.625-10.312   c-8.091-10.84-22.489-18.761-24.062-35.52c-0.393-4.194,2.174-7.502,2.292-11.458c0.397-13.268-4.001-26.715,2.291-40.102   C21.556,94.244,26.98,82.72,49.311,75.563c10.318-3.308,22.63-12.966,30.936-14.895c7.458-1.733,11.257,1.393,16.041-2.292   c5.999-4.622,6.087-13.54,11.458-20.625c14.678-19.364,37.389-24.379,61.872-32.081c3.604-1.313,2.785,1.799,4.584,2.292   c31.505-15.154,90.779-9.899,97.39,26.353c2.164,3.564,7.248,4.211,9.165,8.021C285.755,67.9,281.002,88.629,264.715,105.354z    M262.424,90.458c5.04,1.461,7.291-2.885,4.584-5.729c-7.475,9.003-12.793,1.35-12.605-6.875c3.217-3.276,6.673-6.313,6.877-12.603   c-3.106-3.125-2.853,2.963-6.877,2.292c-4.55-1.586-6.63-10.879,1.146-10.312c3.635,1.39,2.824,8.471,6.875,3.437   c4.559,4.517-2.557,19.18,9.166,20.624c-0.069-6.563,3.266-9.72,3.438-16.041c-4.75-0.31-4.464,1.504-8.02,0   c-0.362-4.984-2.362-8.334-3.438-12.603c-7.868,5.939-14.253-2.272-16.043-9.167c0.559-1.354,1.223-2.598,2.293-3.438   c11.312-1.765,11.582,7.514,19.479,9.166c2.665,4.966,1.078,9.065,4.583,11.458c2.662-13.278-4.082-22.761-11.458-33.228   c-8.842-12.545-24.761-17.787-43.539-18.333c-2.165,0.128-0.795,3.789-3.438,3.438c-1.587-0.704-0.172-4.411-2.291-4.583   c-3.643,0.94-5.822,3.343-8.021,5.729c0.135-5.885-10.302-6.083-11.457-1.146c-5.593-2.971-11.214-0.028-14.894,2.291   c-18.824-2.909-29.917,13.05-45.833,10.312c-1.107,3.092-2.872,5.529-6.875,5.729c0.349,2.672,2.448,4.936-1.146,5.728   c-7.267-4.532-16.791,12.399-16.041,19.479c4.888-4.674,7.955-17.235,14.895-16.041c-2.487,4.562-10.005,14.427-5.729,18.333   c3.287-6.051,6.059-18.155,12.604-17.188c-2.755,4.026-5.757,13.681,0,14.896c-2.414-5.038,0.924-10.263,5.729-11.458   c-0.065,7.005,8.548,1.294,5.729,12.604c3.473-0.347,3.218-4.421,6.874-4.583c2.792,3.483,12.12,4.792,16.041,10.312   c13.779-1.245,19.309-3.212,27.5,5.729c2.656-1.584,11.821-4.816,13.75,0c-0.914,4.367-1.79,7.539,3.438,8.02   c-1.797-4.928,2.696-9.421,5.728-5.729c1.659,4.332-3.146,2.199-2.291,5.729c2.409-0.495,6.028,1.573,8.021,4.583   c0.116-2.916,4.269-2.708,5.729-1.146c0.025-2.7-1.974-3.374-1.146-6.875c4.57,1.133,3.449-3.424,8.02-2.292   c2.064-1.493-2.518-7.275,3.438-6.875c1.285,0.242,1.783,1.272,2.291,2.292c-4.03,5.824,9.384,20.077-6.875,20.624   c-1.461-2.358-1.828-5.811-5.729-5.729c0.469,2.761-2.094,2.491-1.146,5.729c7.248-1.901,6.594,4.101,9.165,6.875   c3.5-4.392,6.99-1.986,10.312-2.291c0.062-3.499-4.125-2.748-3.437-6.875c4.639-1.091,2.433-9.025,8.021-9.166   c1.649,0.641,2.796,1.788,3.438,3.437c-4.979,3.327-2.518,6.416,0,10.312c-3.207,2.521-3.449,8.008-6.875,10.313   c2.217,2.748,0.677,9.253,4.584,10.312C250.774,104.363,266.597,102.573,262.424,90.458z M240.654,113.374   c-3.76-2.352-3.914-8.308-8.021-10.312c-0.275,2.016-1.972,2.611-4.582,2.292c0.003-1.15-0.929-1.364-1.146-2.292   c-0.835-3.126,2.276-2.306,2.291-4.583c-8.744-7.026-17.598-15.739-35.52-17.187c0.367-2.657-0.185-4.399-1.146-5.729   c-28.035-9.157-64.843-13.24-95.099-8.02c-1.828,0.846,0.262,5.608-3.438,4.583c-1.335-0.193-1.244-1.811-1.146-3.437   c-5.127,0.984-5.979,6.243-11.458,6.875c-3.013,0.339-0.902-4.445-4.583-3.438C61.571,71.783,61.603,86.71,45.872,85.875   c-2.888,4.05-8.596,5.868-8.02,10.312c-3.552,4.059-3.012-0.075-6.874-1.146c-3.359,3.963-7.395,9.947-3.438,14.896   c-4.485,0.666-6.653-0.985-9.167-2.292c-4.997,2.815,0.246,10.724-6.875,12.603c4.803,2.077,8.236,1.442,14.895,0   c0,1.528,0,3.056,0,4.583c-8.083,0.872-10.17-0.293-17.186,2.292c4.046,5.495-0.496,4.37-1.146,10.312   c0.794,2.261,6.393-0.281,6.874,2.292c0.583,4.784-6.001,2.401-5.728,6.875c5.169-0.558,2.47,5.772,5.728,11.458   c3.33-2.479-2.621-7.127,2.292-8.021c6.321,1.562-2.353,11.572,3.438,12.603c-0.062-1.971,0.881-2.938,2.291-3.437   c2.704,0.799,1.589,11.308,3.438,9.166c0.155-3.664-1.13-8.768,3.437-8.02c1.928,9.889-3.31,13.75,2.292,19.478   c0.085-6.766-2.749-16.086,3.437-20.623c3.988,11.188-4.222,29.636,6.874,33.228c0.155-10.754-7.289-30.771,2.292-36.665   c0,3.055,0,6.111,0,9.166c4.928-5.066,7.308,0.37,11.458,2.292c-1.241-7.03,2.208-17.717,6.875-19.478   c0.339,4.447,0.339,5.864,0,10.312c3.879-0.323,6.579-1.824,11.458-1.146c2.271-1.931,3.139-5.263,4.583-8.02   c5.307,3.431,12.887,1.46,18.333-1.146c-0.003,1.148,0.929,1.363,1.146,2.292c-1.893,6.378-7,2.743-9.167,9.166   c-10.618-5.499-16.797,5.271-26.352,3.437c-2.698,4.893,3.063,14.506,0,19.478c-11.174,0.929-10.19-9.336-9.166-14.895   c-7.763-0.399-2.274,13.791-2.292,19.479c8.372-2.515,3.762,14.437,11.458,16.041c0.582-0.549-8.861-14.237,0-16.041   c1.356,3.608,1.288,8.641,3.437,11.458c1.511-5.051-3.807-9.849,1.146-11.458c2.08,7.85,4.313,15.547,6.875,22.916   c3.789,1.176,8.754,1.175,11.458,3.437c-5.243-2.776-3.43-12.609-8.021-16.04c-1.467,5.218,4.017,10.672-1.146,12.604   c-3.68-9.712-6.379-27.724-1.146-37.811c4.404,3.203-1.62,10.529,3.437,13.75c1.439-3.527,1.247-8.684,4.583-10.312   c3.107,5.458-4.031,19.649,3.438,22.916c0.495-6.761-1.826-16.338,4.583-17.187c1.698,11.312,1.751,24.992,5.729,30.936   c0.739-4.99-1.494-12.952,1.146-16.04c4.67,3.349,0.799,15.242,6.875,17.186c-0.92-2.957-2.573-11.1,0-13.748   c4.731,4.052,1.737,15.831,8.02,18.331c-0.621-7.663-3.669-17.697,0-20.623c5.569,5.506-0.795,22.946,10.312,22.915   c-0.924-6.757-6.7-26.052-1.146-33.227c4.64,6.615-0.871,22.464,5.729,30.935c2.761,0.47,2.49-2.092,5.729-1.146   c-0.695-6.962-5.629-15.731-2.291-22.915c6.402,1.997,0.593,16.212,6.875,18.332c3.182-4.072-4.678-11.737,0-17.187   c10.219-1.188,0.226,10.822,8.019,11.458c0.463-6.252-0.663-16.66,4.583-21.771c4.689,2.188-2.568,11.554,3.438,13.75   c4.342-4.823,0.698-17.634,6.875-20.624c1.678,0.996,3.631,1.716,3.436,4.583c-1.062,3.901-3.208,6.72-2.29,12.604   c6.15-0.343,1.145-11.84,6.875-12.604c2.166-0.257,2.527,1.292,4.584,1.146c1.87-12.11,16.146-4.781,18.331-16.041   c5.103-0.77,5.919-3.276,11.459-1.146c0.468-2.761-2.094-2.491-1.147-5.729c4.846-2.224,15.14-4.291,18.334-11.458   c-3.542-3.204-3.087,4.532-8.021,3.437c-7.7-2.858-13.118-7.996-11.457-17.187c8.906,0.52,1.112,10.938,9.166,11.459   c2.936-3.502-4.479-3.592-1.146-8.022c2.657-0.365,4.399,0.185,5.728,1.146c-0.381-4.595-7.739-7.724-2.291-11.458   c6.19,0.304,2.594,10.392,9.166,10.312c0.017-5.072-6.256-8.362-2.291-13.749c-1.932-3.233-5.264,4.403-8.019,0   c0-1.146,0-2.292,0-3.437c5.7,1.501,4.873-3.528,9.165-3.438c1.562,2.254,1.094,6.545,2.291,9.166c3.209,1.318,5.957,1.318,9.166,0   c0.016,2.277,3.126,1.457,2.291,4.583c-0.275,2.016-1.972,2.612-4.582,2.292c0.556,5.353,1.929,8.025-1.146,11.458   c7.293,2.709,2.462-6.707,6.874-6.875c2.701-0.025,3.374,1.975,6.875,1.146c5.18-4.73,0.562-13.521,0-19.479   c-2.851,0.126-3.546,2.147-5.728,0c0.319,2.994,0.386,5.734-3.438,4.583C234.155,119.096,240.062,118.891,240.654,113.374z    M242.945,105.354c2.676-4.803,0.88-3.542,0-9.167c-3.238,0.947-2.969-1.615-5.728-1.146   C239.091,98.514,239.948,103.004,242.945,105.354z M343.772,194.724c-12.804,0.565,0.671-21.281-5.728-28.644   c-1.972-0.452-2.938,1.7-3.438,0c-5.514-7.471-10.494-15.477-22.915-16.041c-14.956-15.192-38.687-14.793-63.018-9.167   c-10.283,5.387-20.484,20.442-32.081,17.188c-4.286,4.968,1.611,6.812-1.147,12.603c-19.219,1.021-28.353,12.129-40.102,20.625   c-0.664,3.719,0.781,5.329,1.146,8.021c-21.001,0.387-28.207,14.568-40.103,24.061c-0.55,8.234-2.61,14.957-8.02,18.332   c1.797,12.96-4.663,28.592,2.291,38.957c2.154-3.575,2.92-8.538,8.021-9.167c5.343,4.44,1.38,11.148,4.583,17.187   c-1.464,1.591-5.41,0.7-6.875,2.291c-0.549,3.604,1.632,4.479,2.292,6.875c4.062,0.242,2.262-5.374,6.875-4.583   c0,3.819,0,7.639,0,11.459c5.905-3.643,2.479-13.665,2.292-18.333c2.336-2.302,2.246,0.507,4.582,1.146   c0.627-1.665-1.338-5.923,1.146-5.73c4,3.504,6.792,13.498,4.583,19.479c5.17,1.706,9.027,4.722,12.604,8.021   c1.319-2.501,0.228-7.412,3.438-8.021c3.556,8.18-2.176,13.021-1.147,18.333c8.842-0.708,3.879-15.22,9.166-19.478   c3.231,5.721-3.058,16.221-1.144,20.624c9.912-8.44,5.186-25.358,3.437-38.958c1.577,0.05,2.516-0.539,3.438-1.145   c6.953,2.585,8.594,0.221,14.894,0c2.13,3.272,5.694,14.54,1.147,17.186c-3.724-0.702-7.218-1.589-9.166-1.145   c3.175,7.119,1.245,15.778-2.293,21.77c-5.899-3.59,2.6-9.298-1.146-12.604c-1.48,4.631-3.131,9.089-3.437,14.896   c4.173,0.354,7.456-0.184,10.311-1.146c3.016-5.771,2.979-14.591,9.167-17.188c0.839,8.095-5.188,9.326-4.584,17.188   c10.631-6.685,9.065-25.046,6.876-38.956c8.521,5.609,4.308,25.531,4.584,33.229c6.828-11.077,2.244-22.254,3.437-33.229   c3.824,2.085,3.968,5.984,8.021,2.292c4.901,7.01,1.119,18.896,3.437,26.353c5.655-8.635,0.167-18.997,3.438-26.353   c5.845,2.815,3.239,16.687,2.291,22.915c11.241-4.264,3.34-21.213,6.875-32.081c1.971-0.062,2.938,0.881,3.437,2.291   c-6.958,10.312,7.242,17.729,1.146,27.498c11.092-6.391,14.119-30.774,6.875-42.395c-1.971,5.411,1.08,13.465-1.146,19.479   c-6.562-0.313-2.148-11.601-3.437-17.187c-2.346-3.046-5.971-9.483-4.583-12.604c4.281-1.224,3.266,2.846,6.875,2.292   c-0.13-4.071-4.238-4.165-3.439-9.167c15.464,9.486,14.814,34.005,10.314,50.414c6.578-0.295,2.291-11.456,6.873-13.748   c5.431,4.735-1.382,14.825-3.436,19.479c11.858,0.4,14.514-8.401,17.185-17.187c-6.48,1.539-6.015,10.024-11.456,12.602   c7.083-20.196-5.532-41.905-10.312-56.143c5.907,0.966,5.083,8.666,10.312,10.312c0.215,2.34,3.737-4.211,4.582,1.146   c-0.172,2.12-3.878,0.704-4.582,2.292c1.007,2.811,1.031,6.607,4.582,6.875c-2.158-3.986,0.568-5.093,3.438-6.875   c-3.773-7.312-5.624-22.624-5.729-29.79c8.993,12.776,7.971,35.568,16.04,49.268c-1.378,5.901-5.939,14.656-4.584,19.479   c21.354-16.666-7.875-49.057,1.147-60.726c1.582,2.238,1.604,6.033,4.583,6.875c-4.265,10.431,6.688,22.312,6.875,37.811   c3.769-9.856,1.395-18.972,1.145-26.354c5.144,0.968,3.161,9.061,4.585,13.75c7.928-0.187-0.062-12.398,3.437-14.896   c5.812,7.34,4.565,14.78,2.291,24.062c13.22-6.889-1.397-26.564,3.438-33.228c1.753,8.941,7.222,14.168,5.729,26.354   c8.738-4.861-4.954-23.062,1.146-28.645c4.724,4.825,3.866,15.229,6.875,21.77c5.896-8.539-5.73-19.385,0-24.062   c3.719,0.864,1.77,7.396,5.728,8.021c0.646-5.229-2.029-7.136-1.145-12.604c1.996-0.086,3.562,0.257,4.582,1.146   c-0.014-3.526-4.972-8.684,0-10.312c1.527-0.171,3.459,4.659,4.584,1.146c-4.237-4.701,3.449-3.715,4.584-4.584   c-1.557-2.646-3.295-5.108-3.439-9.166c-4.331-1.658-2.197,3.148-5.729,2.292c1.959-3.923-2.047-8.702,5.729-8.021   c-0.895,5.097,1.081,7.322,5.73,6.875c-0.045-6.065-6.26-5.963-6.875-11.458C337.82,195.359,344.028,201.252,343.772,194.724z    M221.177,146.602c2.824,0.15,5.519,0.172,6.875-1.146c-0.776-2.664-2.062-4.812-5.73-4.583   C223.269,144.11,220.706,143.841,221.177,146.602z M150.138,309.302c4.072,0.13,4.166,4.237,9.166,3.437   c-1.984-4.155-4.973-13.32-5.729-14.896C154.307,303.542,150.093,304.292,150.138,309.302z"/>
	<path fill-rule="evenodd" clip-rule="evenodd" fill="#F6E7A1" d="M335.754,198.161c0.615,5.495,6.83,5.393,6.875,11.458   c-4.649,0.447-6.625-1.778-5.73-6.875c-7.775-0.682-3.77,4.098-5.729,8.021c3.531,0.856,1.397-3.95,5.729-2.292   c0.145,4.058,1.883,6.521,3.439,9.166c-1.135,0.869-8.821-0.117-4.584,4.584c-1.125,3.513-3.057-1.317-4.584-1.146   c-4.972,1.629-0.014,6.786,0,10.312c-1.02-0.89-2.586-1.232-4.582-1.146c-0.885,5.469,1.791,7.375,1.145,12.604   c-3.958-0.625-2.009-7.157-5.728-8.021c-5.73,4.677,5.896,15.522,0,24.062c-3.009-6.54-2.151-16.944-6.875-21.77   c-6.101,5.582,7.592,23.783-1.146,28.645c1.493-12.186-3.976-17.412-5.729-26.354c-4.835,6.663,9.782,26.339-3.438,33.228   c2.274-9.281,3.521-16.722-2.291-24.062c-3.498,2.498,4.491,14.71-3.437,14.896c-1.424-4.689,0.559-12.782-4.585-13.75   c0.25,7.382,2.624,16.497-1.145,26.354c-0.188-15.499-11.14-27.38-6.875-37.811c-2.979-0.842-3.001-4.637-4.583-6.875   c-9.022,11.669,20.207,44.06-1.147,60.726c-1.355-4.822,3.206-13.577,4.584-19.479c-8.069-13.699-7.047-36.491-16.04-49.268   c0.104,7.166,1.955,22.478,5.729,29.79c-2.869,1.782-5.596,2.889-3.438,6.875c-3.551-0.268-3.575-4.064-4.582-6.875   c0.704-1.588,4.41-0.172,4.582-2.292c-0.845-5.356-4.367,1.194-4.582-1.146c-5.229-1.646-4.404-9.347-10.312-10.312   c4.779,14.237,17.395,35.946,10.312,56.143c5.441-2.577,4.976-11.062,11.456-12.602c-2.671,8.785-5.326,17.587-17.185,17.187   c2.054-4.653,8.866-14.743,3.436-19.479c-4.582,2.292-0.295,13.453-6.873,13.748c4.5-16.409,5.149-40.928-10.314-50.414   c-0.799,5.002,3.31,5.096,3.439,9.167c-3.609,0.554-2.594-3.516-6.875-2.292c-1.388,3.121,2.237,9.559,4.583,12.604   c1.288,5.586-3.125,16.873,3.437,17.187c2.227-6.015-0.824-14.068,1.146-19.479c7.244,11.62,4.217,36.004-6.875,42.395   c6.096-9.77-8.104-17.186-1.146-27.498c-0.499-1.41-1.466-2.353-3.437-2.291c-3.535,10.868,4.366,27.817-6.875,32.081   c0.948-6.229,3.554-20.1-2.291-22.915c-3.271,7.355,2.218,17.718-3.438,26.353c-2.317-7.457,1.465-19.343-3.437-26.353   c-4.053,3.692-4.196-0.207-8.021-2.292c-1.192,10.975,3.392,22.151-3.437,33.229c-0.276-7.697,3.938-27.619-4.584-33.229   c2.189,13.91,3.755,32.271-6.876,38.956c-0.604-7.861,5.423-9.093,4.584-17.188c-6.188,2.597-6.151,11.417-9.167,17.188   c-2.854,0.963-6.138,1.5-10.311,1.146c0.306-5.807,1.956-10.265,3.437-14.896c3.745,3.306-4.754,9.014,1.146,12.604   c3.538-5.991,5.468-14.65,2.293-21.77c1.948-0.444,5.442,0.442,9.166,1.145c4.547-2.646,0.982-13.913-1.147-17.186   c-6.3,0.221-7.94,2.585-14.894,0c-0.922,0.605-1.86,1.194-3.438,1.145c1.749,13.6,6.476,30.518-3.437,38.958   c-1.914-4.403,4.375-14.903,1.144-20.624c-5.287,4.258-0.324,18.77-9.166,19.478c-1.028-5.312,4.703-10.153,1.147-18.333   c-3.211,0.609-2.119,5.521-3.438,8.021c-3.576-3.3-7.434-6.315-12.604-8.021c2.209-5.98-0.583-15.975-4.583-19.479   c-2.483-0.192-0.518,4.065-1.146,5.73c-2.336-0.64-2.246-3.448-4.582-1.146c0.187,4.668,3.614,14.69-2.292,18.333   c0-3.82,0-7.64,0-11.459c-4.613-0.791-2.813,4.825-6.875,4.583c-0.661-2.396-2.841-3.271-2.292-6.875   c1.465-1.591,5.411-0.7,6.875-2.291c-3.202-6.038,0.761-12.746-4.583-17.187c-5.102,0.629-5.868,5.592-8.021,9.167   c-6.954-10.365-0.494-25.997-2.291-38.957c5.41-3.375,7.47-10.098,8.02-18.332c11.896-9.492,19.102-23.674,40.103-24.061   c-0.365-2.691-1.811-4.302-1.146-8.021c11.749-8.495,20.883-19.604,40.102-20.625c2.759-5.792-3.139-7.635,1.147-12.603   c11.597,3.255,21.798-11.801,32.081-17.188c24.331-5.626,48.062-6.025,63.018,9.167c12.421,0.564,17.401,8.569,22.915,16.041   c0.5,1.7,1.466-0.452,3.438,0c6.398,7.363-7.076,29.209,5.728,28.644C344.028,201.252,337.82,195.359,335.754,198.161z    M331.17,192.433c-2.708,2.844-0.456,7.188,4.584,5.729C335.106,195.371,334.772,192.267,331.17,192.433z M292.214,243.991   c2.933-3.769-2.041-7.286-2.291-11.457c-1.995-0.086-3.562,0.257-4.584,1.146C289.304,237.994,285.993,242.607,292.214,243.991z    M279.611,144.31c0.345-3.019-1.587-3.761-4.584-3.438C275.105,143.958,277.647,146.379,279.611,144.31z M279.611,148.893   c2.785,4.59,6.624-1.211,9.166-3.438c-1.806-0.104-0.898-2.923-3.438-2.292C285.414,147.059,279.454,144.918,279.611,148.893z    M244.092,158.06c4.938,4.608,10.475,8.621,18.332,10.311c1.361-3.291,2.401-6.083,1.146-9.166   C258.407,158.029,247.34,150.482,244.092,158.06z M331.17,171.808c-1.463-0.063-1.586-1.469-3.438-1.146   c0.679,3.523,5.656,2.747,8.021,4.583c0-1.909,0-3.819,0-5.728c-1.146,0-2.291,0-3.438,0   C332.061,170.406,332.285,171.776,331.17,171.808z M331.17,182.12c-1.38-1.294-2.076-3.27-5.729-2.292   c3.225,2.888,3.62,8.602,9.166,9.167c-0.457-6.345-0.817-6.657,1.146-11.458c-1.549-0.36-2.188-1.631-4.584-1.146   C329.68,179.236,334.532,181.146,331.17,182.12z M325.441,191.287c4.411,0.902,4.411-5.487,0-4.583   C325.441,188.231,325.441,189.759,325.441,191.287z M305.964,216.493c2.351,1.087,5.453,1.422,5.729,4.583   c-1.773,3.955-7.45,4.008-6.875,10.312c9.373-3.231,16.743-8.465,18.333-19.479C318.841,204.468,304.748,203.941,305.964,216.493z    M293.36,233.681c-0.531,3.587,0.995,5.114,4.582,4.583c-1.206-6.762,1.968-4.788,4.584-5.729c0.086-1.996-0.256-3.562-1.147-4.583   C296.867,228.021,298.311,234.047,293.36,233.681z M250.967,235.972c1.146,0,2.291,0,3.436,0c0.322-2.611-0.274-4.307-2.291-4.583   C251.751,232.938,250.482,233.577,250.967,235.972z M144.409,257.742c5.009,1.497,5.76,2.048,11.457,1.145   c1.308-2.513,2.957-4.681,2.292-9.166C153.33,241.361,138.81,246.521,144.409,257.742z M184.512,268.053   c3.514,4.124,7.764,7.515,12.604,10.312C213.836,267.607,184.882,241.445,184.512,268.053z M220.03,268.053   c1.528,0,3.056,0,4.583,0c1-3.672-1.764-3.583-3.437-4.582C220.815,265.019,219.545,265.659,220.03,268.053z M170.762,272.636   c1.147,0,2.291,0,3.438,0c0.319-2.611-0.276-4.306-2.291-4.583C171.547,269.603,170.277,270.241,170.762,272.636z M163.888,273.783   c5.062,3.914,6.442,14.346,5.729,20.622c5.259-0.296,5.537-1.218,10.312,0c4.929-9.34,2.844-22.633-9.166-17.186   c-1.596-1.459-0.497-5.612-3.437-5.729C167.025,273.102,164.811,272.797,163.888,273.783z M163.888,297.843   c6.988-3.011,2.252-20.372-4.584-20.623C160.614,285.057,163.428,292.271,163.888,297.843z"/>
	<path fill-rule="evenodd" clip-rule="evenodd" fill="#4B3900" d="M301.379,227.951c0.892,1.021,1.233,2.587,1.147,4.583   c-2.616,0.941-5.79-1.032-4.584,5.729c-3.587,0.531-5.113-0.996-4.582-4.583C298.311,234.047,296.867,228.021,301.379,227.951z"/>
	<path fill-rule="evenodd" clip-rule="evenodd" fill="#4B3900" d="M105.454,171.808c2.688,0.366,4.3,1.811,8.02,1.146   c-1.471,8.611,2.099,17.396,1.146,21.77c-9.146-1.548-14.5-6.888-19.479-12.604C101.455,183.212,100.794,175.208,105.454,171.808z"/>
</g>
<metadata><rdf:RDF><cc:Work><dc:format>image/svg+xml</dc:format><dc:type rdf:resource="http://purl.org/dc/dcmitype/StillImage"/><cc:license rdf:resource="http://creativecommons.org/licenses/publicdomain/"/><dc:publisher><cc:Agent rdf:about="http://openclipart.org/"><dc:title>Open Clip Art Library</dc:title></cc:Agent></dc:publisher><dc:title>potatoes</dc:title><dc:date>2006-10-11T19:33:36</dc:date><dc:description>3 potatoes</dc:description><dc:source>http://openclipart.org/detail/515/potatoes-by-johnny_automatic</dc:source><dc:creator><cc:Agent><dc:title>johnny_automatic</dc:title></cc:Agent></dc:creator><dc:subject><rdf:Bag><rdf:li>clip art</rdf:li><rdf:li>clipart</rdf:li><rdf:li>food</rdf:li><rdf:li>food</rdf:li><rdf:li>image</rdf:li><rdf:li>media</rdf:li><rdf:li>png</rdf:li><rdf:li>potato</rdf:li><rdf:li>potato</rdf:li><rdf:li>potatoes</rdf:li><rdf:li>potatoes</rdf:li><rdf:li>public domain</rdf:li><rdf:li>svg</rdf:li><rdf:li>three</rdf:li><rdf:li>three</rdf:li><rdf:li>vegetable</rdf:li><rdf:li>vegetable</rdf:li></rdf:Bag></dc:subject></cc:Work><cc:License rdf:about="http://creativecommons.org/licenses/publicdomain/"><cc:permits rdf:resource="http://creativecommons.org/ns#Reproduction"/><cc:permits rdf:resource="http://creativecommons.org/ns#Distribution"/><cc:permits rdf:resource="http://creativecommons.org/ns#DerivativeWorks"/></cc:License></rdf:RDF></metadata></svg>
